<?xml version="1.0" encoding="UTF-8" standalone="no"?>
<!DOCTYPE svg PUBLIC "-//W3C//DTD SVG 1.1//EN" "http://www.w3.org/Graphics/SVG/1.1/DTD/svg11.dtd">
<svg width="100%" height="100%" viewBox="0 0 5186 2221" version="1.1" xmlns="http://www.w3.org/2000/svg" xmlns:xlink="http://www.w3.org/1999/xlink" xml:space="preserve" style="fill-rule:evenodd;clip-rule:evenodd;stroke-linejoin:round;stroke-miterlimit:1.41421;">
    <g transform="matrix(2.82962,0,0,2.82962,-2531.7,-3059.39)">
        <g transform="matrix(4.16667,0,0,4.16667,0,0)">
            <path d="M287.574,302.859C283.374,298.259 278.999,295.109 274.449,293.409C269.899,291.709 264.474,290.859 258.174,290.859C252.074,290.859 246.849,291.459 242.499,292.659C238.149,293.859 234.574,295.584 231.774,297.834C228.974,300.084 226.924,302.759 225.624,305.859C224.324,308.959 223.674,312.459 223.674,316.359C223.674,320.159 224.324,323.334 225.624,325.884C226.924,328.434 228.924,330.584 231.624,332.334C234.324,334.084 237.799,335.584 242.049,336.834C246.299,338.084 251.374,339.309 257.274,340.509C263.174,341.709 268.524,343.009 273.324,344.409C278.124,345.809 282.199,347.559 285.549,349.659C288.899,351.759 291.474,354.359 293.274,357.459C295.074,360.559 295.974,364.459 295.974,369.159C295.974,377.859 292.649,384.509 285.999,389.109C279.349,393.709 270.174,396.009 258.474,396.009C249.874,396.009 242.249,394.684 235.599,392.034C228.949,389.384 222.774,385.209 217.074,379.509L219.324,377.559C224.724,383.159 230.599,387.209 236.949,389.709C243.299,392.209 250.524,393.459 258.624,393.459C269.224,393.459 277.599,391.484 283.749,387.534C289.899,383.584 292.974,377.609 292.974,369.609C292.974,365.609 292.274,362.234 290.874,359.484C289.474,356.734 287.324,354.359 284.424,352.359C281.524,350.359 277.824,348.659 273.324,347.259C268.824,345.859 263.524,344.559 257.424,343.359C251.524,342.259 246.299,341.084 241.749,339.834C237.199,338.584 233.349,336.984 230.199,335.034C227.049,333.084 224.674,330.634 223.074,327.684C221.474,324.734 220.674,321.059 220.674,316.659C220.674,312.059 221.549,307.984 223.299,304.434C225.049,300.884 227.549,297.884 230.799,295.434C234.049,292.984 237.949,291.134 242.499,289.884C247.049,288.634 252.174,288.009 257.874,288.009C264.674,288.009 270.599,288.984 275.649,290.934C280.699,292.884 285.324,296.159 289.524,300.759L287.574,302.859Z" style="fill:white;fill-rule:nonzero;"/>
            <path d="M338.874,395.259L338.874,288.759L382.224,288.759C386.524,288.759 390.524,289.684 394.224,291.534C397.924,293.384 401.099,295.834 403.749,298.884C406.399,301.934 408.474,305.384 409.974,309.234C411.474,313.084 412.224,317.009 412.224,321.009C412.224,325.109 411.574,329.059 410.274,332.859C408.974,336.659 407.124,340.034 404.724,342.984C402.324,345.934 399.449,348.334 396.099,350.184C392.749,352.034 389.074,353.109 385.074,353.409L412.074,395.259L408.474,395.259L381.474,353.409L341.874,353.409L341.874,395.259L338.874,395.259ZM341.874,350.409L383.274,350.409C387.274,350.409 390.874,349.559 394.074,347.859C397.274,346.159 399.999,343.934 402.249,341.184C404.499,338.434 406.224,335.309 407.424,331.809C408.624,328.309 409.224,324.709 409.224,321.009C409.224,317.209 408.524,313.559 407.124,310.059C405.724,306.559 403.799,303.459 401.349,300.759C398.899,298.059 396.024,295.884 392.724,294.234C389.424,292.584 385.924,291.759 382.224,291.759L341.874,291.759L341.874,350.409Z" style="fill:white;fill-rule:nonzero;"/>
            <path d="M274.461,437.284C274.461,435.86 273.517,434.564 271.005,433.876C270.701,433.796 269.197,433.364 268.909,433.284C266.813,432.692 265.629,432.148 265.629,430.932C265.629,429.652 266.893,428.66 269.341,428.66C271.005,428.66 272.285,429.3 273.149,430.26L274.013,429.412C272.925,428.276 271.277,427.588 269.325,427.588C265.869,427.588 264.461,429.3 264.461,430.996C264.461,432.788 265.869,433.604 268.253,434.292C268.541,434.372 270.333,434.868 270.621,434.948C272.413,435.444 273.293,436.324 273.293,437.38C273.293,438.836 271.837,439.796 269.421,439.796C267.773,439.796 266.477,439.268 265.117,438.02L264.205,438.9C265.469,440.228 267.517,440.868 269.485,440.868C273.197,440.868 274.461,438.996 274.461,437.284Z" style="fill:white;fill-rule:nonzero;"/>
            <path d="M285.221,438.772C284.501,439.492 283.621,439.828 282.533,439.828C280.005,439.828 279.013,437.908 279.013,435.748C279.013,433.508 280.149,431.54 282.565,431.508C283.605,431.508 284.501,431.844 285.109,432.42L285.861,431.62C285.141,430.916 284.053,430.468 282.549,430.468C279.621,430.468 277.941,432.724 277.941,435.748C277.941,438.708 279.413,440.868 282.533,440.868C283.941,440.868 285.109,440.436 285.973,439.54L285.221,438.772Z" style="fill:white;fill-rule:nonzero;"/>
            <path d="M297.181,435.668C297.181,437.956 296.173,439.828 293.693,439.828C291.229,439.828 290.205,437.94 290.205,435.668C290.205,433.38 291.197,431.508 293.693,431.508C296.157,431.508 297.181,433.38 297.181,435.668ZM298.253,435.668C298.253,432.596 296.733,430.468 293.677,430.468C290.653,430.468 289.133,432.628 289.133,435.668C289.133,438.724 290.653,440.868 293.693,440.868C296.701,440.868 298.253,438.708 298.253,435.668Z" style="fill:white;fill-rule:nonzero;"/>
            <path d="M306.961,439.14C306.417,439.62 305.873,439.844 305.185,439.844C304.177,439.844 303.601,439.108 303.601,437.812L303.601,431.716L303.537,431.604L306.721,431.604L306.721,430.628L303.537,430.628L303.601,430.516L303.601,428.196L302.529,428.772L302.529,430.516L302.593,430.628L301.313,430.628L301.313,431.604L302.593,431.604L302.529,431.716L302.529,437.876C302.529,439.828 303.537,440.868 305.105,440.868C306.033,440.868 306.881,440.548 307.713,439.908L306.961,439.14Z" style="fill:white;fill-rule:nonzero;"/>
            <path d="M315.801,439.14C315.257,439.62 314.713,439.844 314.025,439.844C313.017,439.844 312.441,439.108 312.441,437.812L312.441,431.716L312.377,431.604L315.561,431.604L315.561,430.628L312.377,430.628L312.441,430.516L312.441,428.196L311.369,428.772L311.369,430.516L311.433,430.628L310.153,430.628L310.153,431.604L311.433,431.604L311.369,431.716L311.369,437.876C311.369,439.828 312.377,440.868 313.945,440.868C314.873,440.868 315.721,440.548 316.553,439.908L315.801,439.14Z" style="fill:white;fill-rule:nonzero;"/>
            <path d="M335.099,431.492C335.099,433.06 333.883,434.116 331.947,434.116L327.643,434.116L327.755,434.004L327.755,428.948L327.643,428.82L332.107,428.82C333.755,428.82 335.099,429.54 335.099,431.492ZM335.387,436.82C334.971,435.94 334.395,435.284 333.515,434.932L333.515,434.9C335.323,434.372 336.267,433.14 336.267,431.492C336.267,428.996 334.411,427.748 332.107,427.748L326.635,427.748L326.635,440.708L327.755,440.708L327.755,435.316L327.643,435.188L330.875,435.188C332.651,435.188 333.675,435.876 334.363,437.316L335.963,440.708L337.275,440.708L335.387,436.82Z" style="fill:white;fill-rule:nonzero;"/>
            <path d="M341.567,430.644L340.495,430.644L340.495,440.708L341.567,440.708L341.567,430.644ZM341.839,428.084C341.839,427.508 341.567,427.172 341.039,427.172C340.527,427.172 340.239,427.508 340.239,428.084C340.239,428.66 340.527,428.996 341.039,428.996C341.551,428.996 341.839,428.66 341.839,428.084Z" style="fill:white;fill-rule:nonzero;"/>
            <path d="M354.103,435.572C354.103,437.828 353.175,439.828 350.647,439.828C348.103,439.828 347.191,437.828 347.191,435.572C347.191,433.332 348.135,431.508 350.647,431.508C353.175,431.508 354.103,433.316 354.103,435.572ZM355.175,435.572C355.175,432.564 353.719,430.468 350.711,430.468C349.351,430.468 348.103,430.964 347.351,432.196L347.319,432.196L347.319,430.644L346.247,430.644L346.247,444.068L347.319,444.068L347.319,439.108L347.351,439.108C348.183,440.34 349.367,440.868 350.711,440.868C353.751,440.868 355.175,438.628 355.175,435.572Z" style="fill:white;fill-rule:nonzero;"/>
            <rect x="359.295" y="427.268" width="1.056" height="13.44" style="fill:white;fill-rule:nonzero;"/>
            <path d="M365.363,435.172L365.475,435.06C365.731,432.884 366.867,431.508 368.979,431.508C371.027,431.508 372.227,432.884 372.387,435.06L372.499,435.172L365.363,435.172ZM373.491,435.748C373.491,432.66 372.019,430.468 368.963,430.468C366.067,430.468 364.371,432.628 364.371,435.748C364.371,438.708 365.843,440.868 369.043,440.868C370.451,440.868 371.651,440.404 372.563,439.54L371.811,438.772C371.075,439.444 370.131,439.828 369.043,439.828C366.915,439.828 365.731,438.644 365.459,436.26L365.347,436.164L373.475,436.164C373.491,436.036 373.491,435.924 373.491,435.748Z" style="fill:white;fill-rule:nonzero;"/>
            <path d="M384.587,430.628L381.707,438.276L381.227,439.668L381.195,439.668L380.731,438.276L377.467,430.628L376.251,430.628L380.699,440.708C380.123,442.196 379.403,443.124 378.395,443.124C377.883,443.124 377.339,443.028 376.891,442.836L376.891,443.812C377.355,444.036 377.899,444.148 378.587,444.148C379.739,444.148 380.779,443.3 381.355,441.86L385.803,430.628L384.587,430.628Z" style="fill:white;fill-rule:nonzero;"/>
            <path d="M397.884,436.244L397.996,436.148L400.556,430.292L400.94,429.076L400.972,429.076L401.324,430.292L403.884,436.132L404.012,436.244L397.884,436.244ZM401.452,427.748L400.46,427.748L394.764,440.708L395.996,440.708L397.436,437.428L397.404,437.316L404.492,437.316L404.444,437.428L405.9,440.708L407.132,440.708L401.452,427.748Z" style="fill:white;fill-rule:nonzero;"/>
            <path d="M417.904,438.036C417.904,436.82 417.216,435.924 415.264,435.364C415.04,435.3 413.856,434.916 413.648,434.852C412.048,434.404 411.28,433.956 411.28,433.14C411.28,432.26 412.192,431.508 413.952,431.508C415.168,431.508 416.096,431.988 416.8,432.788L417.616,431.988C416.688,430.996 415.424,430.468 413.952,430.468C411.312,430.468 410.192,431.812 410.192,433.188C410.192,434.644 411.328,435.316 413.104,435.844C413.328,435.908 414.688,436.324 414.896,436.372C416.304,436.772 416.816,437.268 416.816,438.1C416.816,439.108 415.824,439.844 414.016,439.844C412.816,439.844 411.872,439.444 410.784,438.436L409.952,439.268C411.024,440.388 412.576,440.884 414.064,440.884C416.896,440.884 417.904,439.428 417.904,438.036Z" style="fill:white;fill-rule:nonzero;"/>
            <path d="M429.416,438.036C429.416,436.82 428.728,435.924 426.776,435.364C426.552,435.3 425.368,434.916 425.16,434.852C423.56,434.404 422.792,433.956 422.792,433.14C422.792,432.26 423.704,431.508 425.464,431.508C426.68,431.508 427.608,431.988 428.312,432.788L429.128,431.988C428.2,430.996 426.936,430.468 425.464,430.468C422.824,430.468 421.704,431.812 421.704,433.188C421.704,434.644 422.84,435.316 424.616,435.844C424.84,435.908 426.2,436.324 426.408,436.372C427.816,436.772 428.328,437.268 428.328,438.1C428.328,439.108 427.336,439.844 425.528,439.844C424.328,439.844 423.384,439.444 422.296,438.436L421.464,439.268C422.536,440.388 424.088,440.884 425.576,440.884C428.408,440.884 429.416,439.428 429.416,438.036Z" style="fill:white;fill-rule:nonzero;"/>
            <path d="M441.024,435.668C441.024,437.956 440.016,439.828 437.536,439.828C435.072,439.828 434.048,437.94 434.048,435.668C434.048,433.38 435.04,431.508 437.536,431.508C440,431.508 441.024,433.38 441.024,435.668ZM442.096,435.668C442.096,432.596 440.576,430.468 437.52,430.468C434.496,430.468 432.976,432.628 432.976,435.668C432.976,438.724 434.496,440.868 437.536,440.868C440.544,440.868 442.096,438.708 442.096,435.668Z" style="fill:white;fill-rule:nonzero;"/>
            <path d="M452.836,438.772C452.116,439.492 451.236,439.828 450.148,439.828C447.62,439.828 446.628,437.908 446.628,435.748C446.628,433.508 447.764,431.54 450.18,431.508C451.22,431.508 452.116,431.844 452.724,432.42L453.476,431.62C452.756,430.916 451.668,430.468 450.164,430.468C447.236,430.468 445.556,432.724 445.556,435.748C445.556,438.708 447.028,440.868 450.148,440.868C451.556,440.868 452.724,440.436 453.588,439.54L452.836,438.772Z" style="fill:white;fill-rule:nonzero;"/>
            <path d="M458.38,430.644L457.308,430.644L457.308,440.708L458.38,440.708L458.38,430.644ZM458.652,428.084C458.652,427.508 458.38,427.172 457.852,427.172C457.34,427.172 457.052,427.508 457.052,428.084C457.052,428.66 457.34,428.996 457.852,428.996C458.364,428.996 458.652,428.66 458.652,428.084Z" style="fill:white;fill-rule:nonzero;"/>
            <path d="M469.808,435.764L469.808,437.844C469.808,439.46 467.424,439.844 466.32,439.844C465.248,439.844 463.472,439.476 463.472,437.86C463.472,436.66 464.432,436.1 465.504,435.844C466.032,435.716 466.624,435.652 467.2,435.62C467.76,435.588 468.288,435.588 468.736,435.588C469.072,435.588 469.632,435.62 469.92,435.652L469.808,435.764ZM470.88,434.084C470.88,431.316 468.944,430.484 466.832,430.484C465.344,430.484 464.096,430.804 462.944,431.732L463.68,432.484C464.544,431.732 465.792,431.508 466.832,431.508C468.384,431.508 469.808,432.132 469.808,434.1L469.808,434.644L469.92,434.756C469.632,434.708 469.008,434.66 468.656,434.66C466.096,434.66 462.4,434.82 462.4,437.86C462.4,440.084 464.304,440.884 466.32,440.884C467.888,440.884 469.072,440.388 469.776,439.604L469.808,439.604L469.808,440.708L470.88,440.708L470.88,434.084Z" style="fill:white;fill-rule:nonzero;"/>
            <path d="M480.168,439.14C479.624,439.62 479.08,439.844 478.392,439.844C477.384,439.844 476.808,439.108 476.808,437.812L476.808,431.716L476.744,431.604L479.928,431.604L479.928,430.628L476.744,430.628L476.808,430.516L476.808,428.196L475.736,428.772L475.736,430.516L475.8,430.628L474.52,430.628L474.52,431.604L475.8,431.604L475.736,431.716L475.736,437.876C475.736,439.828 476.744,440.868 478.312,440.868C479.24,440.868 480.088,440.548 480.92,439.908L480.168,439.14Z" style="fill:white;fill-rule:nonzero;"/>
            <path d="M484.752,435.172L484.864,435.06C485.12,432.884 486.256,431.508 488.368,431.508C490.416,431.508 491.616,432.884 491.776,435.06L491.888,435.172L484.752,435.172ZM492.88,435.748C492.88,432.66 491.408,430.468 488.352,430.468C485.456,430.468 483.76,432.628 483.76,435.748C483.76,438.708 485.232,440.868 488.432,440.868C489.84,440.868 491.04,440.404 491.952,439.54L491.2,438.772C490.464,439.444 489.52,439.828 488.432,439.828C486.304,439.828 485.12,438.644 484.848,436.26L484.736,436.164L492.864,436.164C492.88,436.036 492.88,435.924 492.88,435.748Z" style="fill:white;fill-rule:nonzero;"/>
            <path d="M504.292,438.036C504.292,436.82 503.604,435.924 501.652,435.364C501.428,435.3 500.244,434.916 500.036,434.852C498.436,434.404 497.668,433.956 497.668,433.14C497.668,432.26 498.58,431.508 500.34,431.508C501.556,431.508 502.484,431.988 503.188,432.788L504.004,431.988C503.076,430.996 501.812,430.468 500.34,430.468C497.7,430.468 496.58,431.812 496.58,433.188C496.58,434.644 497.716,435.316 499.492,435.844C499.716,435.908 501.076,436.324 501.284,436.372C502.692,436.772 503.204,437.268 503.204,438.1C503.204,439.108 502.212,439.844 500.404,439.844C499.204,439.844 498.26,439.444 497.172,438.436L496.34,439.268C497.412,440.388 498.964,440.884 500.452,440.884C503.284,440.884 504.292,439.428 504.292,438.036Z" style="fill:white;fill-rule:nonzero;"/>
            <path d="M523.462,439.636L516.102,439.636L516.214,439.524L516.214,427.748L515.094,427.748L515.094,440.708L523.462,440.708L523.462,439.636Z" style="fill:white;fill-rule:nonzero;"/>
            <path d="M528.014,430.644L526.942,430.644L526.942,440.708L528.014,440.708L528.014,430.644ZM528.286,428.084C528.286,427.508 528.014,427.172 527.486,427.172C526.974,427.172 526.686,427.508 526.686,428.084C526.686,428.66 526.974,428.996 527.486,428.996C527.998,428.996 528.286,428.66 528.286,428.084Z" style="fill:white;fill-rule:nonzero;"/>
            <path d="M545.474,434.692C545.474,431.812 544.418,430.468 542.37,430.468C541.202,430.468 540.018,431.172 539.346,432.292L539.314,432.292C538.786,431.22 537.73,430.468 536.498,430.468C535.362,430.468 534.274,431.076 533.714,432.228L533.682,432.228L533.682,430.628L532.594,430.628L532.594,440.708L533.682,440.708L533.682,434.628C533.682,432.852 534.722,431.492 536.226,431.492C538.162,431.492 538.482,432.964 538.482,434.676L538.482,440.708L539.57,440.708L539.57,434.612C539.554,433.028 540.354,431.508 542.114,431.508C544.194,431.508 544.386,433.204 544.386,435.092L544.386,440.708L545.458,440.708L545.474,434.692Z" style="fill:white;fill-rule:nonzero;"/>
            <path d="M551.146,430.644L550.074,430.644L550.074,440.708L551.146,440.708L551.146,430.644ZM551.418,428.084C551.418,427.508 551.146,427.172 550.618,427.172C550.106,427.172 549.818,427.508 549.818,428.084C549.818,428.66 550.106,428.996 550.618,428.996C551.13,428.996 551.418,428.66 551.418,428.084Z" style="fill:white;fill-rule:nonzero;"/>
            <path d="M560.514,439.14C559.97,439.62 559.426,439.844 558.738,439.844C557.73,439.844 557.154,439.108 557.154,437.812L557.154,431.716L557.09,431.604L560.274,431.604L560.274,430.628L557.09,430.628L557.154,430.516L557.154,428.196L556.082,428.772L556.082,430.516L556.146,430.628L554.866,430.628L554.866,431.604L556.146,431.604L556.082,431.716L556.082,437.876C556.082,439.828 557.09,440.868 558.658,440.868C559.586,440.868 560.434,440.548 561.266,439.908L560.514,439.14Z" style="fill:white;fill-rule:nonzero;"/>
            <path d="M564.998,435.172L565.11,435.06C565.366,432.884 566.502,431.508 568.614,431.508C570.662,431.508 571.862,432.884 572.022,435.06L572.134,435.172L564.998,435.172ZM573.126,435.748C573.126,432.66 571.654,430.468 568.598,430.468C565.702,430.468 564.006,432.628 564.006,435.748C564.006,438.708 565.478,440.868 568.678,440.868C570.086,440.868 571.286,440.404 572.198,439.54L571.446,438.772C570.71,439.444 569.766,439.828 568.678,439.828C566.55,439.828 565.366,438.644 565.094,436.26L564.982,436.164L573.11,436.164C573.126,436.036 573.126,435.924 573.126,435.748Z" style="fill:white;fill-rule:nonzero;"/>
            <path d="M584.67,435.764C584.67,438.02 583.726,439.844 581.214,439.844C578.686,439.844 577.758,438.02 577.758,435.764C577.758,433.508 578.702,431.508 581.214,431.508C583.758,431.508 584.67,433.508 584.67,435.764ZM585.614,427.284L584.542,427.284L584.542,432.228L584.51,432.228C583.694,430.996 582.51,430.468 581.166,430.468C578.126,430.468 576.686,432.724 576.686,435.764C576.686,438.772 578.142,440.868 581.15,440.868C582.526,440.868 583.774,440.372 584.51,439.14L584.542,439.14L584.542,440.708L585.614,440.708L585.614,427.284Z" style="fill:white;fill-rule:nonzero;"/>
        </g>
        <g>
            <g transform="matrix(4.16667,0,0,4.16667,0,0)">
                <path d="M571.879,263.258C572.048,263.35 572.235,263.416 572.387,263.534C572.801,263.858 572.806,264.028 573.007,264.49L610.277,414.223C610.29,414.433 610.342,414.645 610.317,414.854C610.266,415.279 610.061,415.671 609.741,415.955C609.583,416.095 609.397,416.207 609.2,416.282C609.003,416.357 608.786,416.358 608.579,416.396L549.228,416.396C548.707,416.304 548.528,416.343 548.103,415.987C547.788,415.722 547.576,415.355 547.505,414.95C547.469,414.75 547.469,414.542 547.505,414.342C547.54,414.143 547.611,413.946 547.712,413.771C547.814,413.596 547.948,413.436 548.103,413.305C548.528,412.949 548.707,412.988 549.228,412.896L606.34,412.896L569.941,266.663L511.214,266.663C510.693,266.571 510.514,266.61 510.089,266.254C509.934,266.123 509.8,265.963 509.698,265.788C509.493,265.432 509.419,265.014 509.491,264.609C509.526,264.41 509.597,264.213 509.698,264.038C509.8,263.863 509.934,263.703 510.089,263.572C510.514,263.216 510.693,263.255 511.214,263.163L571.309,263.163C571.499,263.195 571.689,263.227 571.879,263.258Z" style="fill:white;fill-rule:nonzero;"/>
            </g>
            <g transform="matrix(4.16667,0,0,4.16667,0,0)">
                <path d="M504.975,287.815C505.433,288.079 505.614,288.104 505.892,288.584C506.097,288.94 506.171,289.358 506.099,289.763C506.064,289.962 505.993,290.159 505.892,290.334C505.79,290.509 505.656,290.669 505.501,290.8C505.076,291.156 504.897,291.117 504.376,291.209L429.543,291.209C429.022,291.117 428.843,291.156 428.418,290.8C428.263,290.669 428.129,290.509 428.027,290.334C427.822,289.978 427.748,289.56 427.82,289.155C427.855,288.956 427.926,288.759 428.027,288.584C428.129,288.409 428.263,288.249 428.418,288.118C428.843,287.762 429.022,287.801 429.543,287.709L504.376,287.709C504.576,287.744 504.775,287.779 504.975,287.815Z" style="fill:white;fill-rule:nonzero;"/>
            </g>
            <g transform="matrix(4.16667,0,0,4.16667,0,0)">
                <path d="M478.407,393.202C478.446,393.206 478.485,393.208 478.523,393.214C478.601,393.224 478.677,393.24 478.752,393.26C478.978,393.322 479.191,393.43 479.375,393.575C479.558,393.72 479.712,393.902 479.825,394.107C479.918,394.278 479.983,394.465 480.016,394.657C480.042,394.811 480.047,394.968 480.031,395.123C480.016,395.278 479.979,395.431 479.923,395.577C479.853,395.759 479.752,395.929 479.626,396.078C479.475,396.257 479.288,396.404 479.079,396.51C478.905,396.598 478.717,396.656 478.523,396.682C478.42,396.696 478.394,396.695 478.29,396.698L458.683,396.698C458.579,396.695 458.553,396.696 458.45,396.682C458.256,396.656 458.068,396.598 457.894,396.51C457.685,396.404 457.498,396.257 457.347,396.078C457.246,395.959 457.161,395.826 457.096,395.685C457.03,395.543 456.983,395.393 456.957,395.239C456.918,395.008 456.926,394.77 456.981,394.542C457.035,394.315 457.135,394.098 457.274,393.91C457.39,393.753 457.532,393.616 457.693,393.505C457.886,393.373 458.105,393.28 458.334,393.233C458.411,393.218 458.488,393.207 458.566,393.202C458.605,393.199 458.644,393.199 458.683,393.198L478.29,393.198C478.329,393.199 478.368,393.201 478.407,393.202Z" style="fill:white;fill-rule:nonzero;"/>
            </g>
            <g transform="matrix(4.16667,0,0,4.16667,0,0)">
                <path d="M429.726,287.764C429.911,287.848 430.112,287.901 430.279,288.016C430.737,288.329 430.747,288.512 430.976,288.989L460.369,394.478C460.42,395.005 460.506,395.167 460.276,395.672C460.106,396.046 459.809,396.349 459.438,396.527C459.256,396.614 459.054,396.67 458.853,396.69C458.651,396.709 458.443,396.693 458.247,396.643C458.051,396.592 457.861,396.506 457.694,396.391C457.236,396.078 457.226,395.895 456.997,395.418L427.604,289.929C427.585,289.727 427.53,289.526 427.545,289.324C427.561,289.122 427.613,288.92 427.697,288.735C427.867,288.361 428.164,288.058 428.535,287.88C428.717,287.793 428.925,287.772 429.12,287.717C429.322,287.733 429.524,287.749 429.726,287.764Z" style="fill:white;fill-rule:nonzero;"/>
            </g>
            <g transform="matrix(4.16667,0,0,4.16667,0,0)">
                <path d="M620.852,287.717C620.908,287.726 620.965,287.731 621.021,287.743C621.246,287.787 621.462,287.877 621.652,288.004C621.795,288.099 621.924,288.216 622.033,288.349C622.142,288.482 622.231,288.631 622.297,288.789C622.363,288.948 622.405,289.116 622.422,289.287C622.45,289.573 622.407,289.864 622.297,290.129C622.209,290.34 622.08,290.534 621.917,290.696C621.674,290.94 621.359,291.108 621.021,291.175C620.871,291.205 620.832,291.202 620.68,291.209L577.437,291.209C577.285,291.202 577.246,291.205 577.096,291.175C576.758,291.108 576.443,290.94 576.2,290.696C576.037,290.534 575.908,290.34 575.82,290.129C575.71,289.864 575.667,289.573 575.695,289.287C575.718,289.059 575.786,288.836 575.894,288.634C575.975,288.482 576.078,288.343 576.2,288.222C576.321,288.1 576.461,287.997 576.612,287.916C576.814,287.808 577.037,287.74 577.265,287.717C577.322,287.712 577.38,287.712 577.437,287.709L620.68,287.709C620.737,287.712 620.794,287.715 620.852,287.717Z" style="fill:white;fill-rule:nonzero;"/>
            </g>
            <g transform="matrix(4.16667,0,0,4.16667,0,0)">
                <path d="M650.596,393.207C650.654,393.216 650.713,393.222 650.771,393.234C651.003,393.281 651.225,393.376 651.419,393.512C651.564,393.613 651.694,393.737 651.803,393.877C651.984,394.111 652.104,394.39 652.149,394.683C652.185,394.917 652.172,395.158 652.113,395.387C652.069,395.558 651.998,395.723 651.904,395.874C651.81,396.024 651.694,396.16 651.559,396.276C651.334,396.469 651.061,396.603 650.771,396.662C650.617,396.694 650.576,396.69 650.419,396.698L603.759,396.698C603.7,396.695 603.641,396.695 603.582,396.689C603.347,396.665 603.117,396.593 602.91,396.478C602.755,396.392 602.613,396.282 602.491,396.154C602.328,395.982 602.2,395.778 602.118,395.556C602.015,395.278 601.984,394.976 602.029,394.683C602.056,394.508 602.11,394.337 602.188,394.177C602.266,394.018 602.368,393.871 602.491,393.742C602.736,393.485 603.058,393.305 603.407,393.234C603.561,393.202 603.602,393.206 603.759,393.198L650.419,393.198C650.478,393.201 650.537,393.204 650.596,393.207Z" style="fill:white;fill-rule:nonzero;"/>
            </g>
            <g transform="matrix(4.16667,0,0,4.16667,0,0)">
                <path d="M621.111,287.763C621.296,287.846 621.498,287.899 621.665,288.013C622.123,288.325 622.135,288.508 622.364,288.984L652.103,394.473C652.156,394.999 652.242,395.162 652.014,395.667C651.931,395.852 651.814,396.024 651.672,396.169C651.385,396.464 651.004,396.648 650.594,396.689C650.393,396.709 650.184,396.694 649.988,396.644C649.792,396.594 649.601,396.508 649.434,396.394C648.976,396.082 648.964,395.899 648.735,395.423L618.996,289.934C618.975,289.732 618.92,289.531 618.935,289.329C618.965,288.919 619.139,288.532 619.427,288.238C619.568,288.093 619.737,287.971 619.92,287.883C620.102,287.795 620.31,287.773 620.505,287.718C620.707,287.733 620.909,287.748 621.111,287.763Z" style="fill:white;fill-rule:nonzero;"/>
            </g>
            <g transform="matrix(4.16667,0,0,4.16667,0,0)">
                <path d="M526.425,322.868C526.552,322.884 526.585,322.884 526.71,322.916C526.897,322.963 527.076,323.041 527.237,323.147C527.399,323.253 527.542,323.385 527.661,323.537C527.809,323.728 527.917,323.948 527.976,324.182C528.048,324.463 528.048,324.761 527.976,325.042C527.941,325.182 527.888,325.318 527.819,325.445C527.727,325.615 527.607,325.769 527.465,325.9C527.216,326.129 526.902,326.282 526.568,326.338C526.441,326.359 526.408,326.357 526.28,326.362L496.148,326.362C496.02,326.357 495.987,326.359 495.86,326.338C495.67,326.306 495.485,326.243 495.315,326.151C495.188,326.082 495.069,325.998 494.963,325.9C494.75,325.703 494.587,325.454 494.493,325.18C494.414,324.952 494.384,324.708 494.404,324.467C494.42,324.275 494.468,324.086 494.545,323.909C494.623,323.732 494.73,323.569 494.86,323.427C495.09,323.178 495.39,322.999 495.718,322.916C495.812,322.892 495.907,322.876 496.003,322.868C496.052,322.864 496.1,322.864 496.148,322.862L526.28,322.862C526.328,322.864 526.376,322.866 526.425,322.868Z" style="fill:rgb(116,171,220);fill-rule:nonzero;"/>
            </g>
            <g transform="matrix(4.16667,0,0,4.16667,0,0)">
                <path d="M511.782,263.258C511.951,263.349 512.137,263.414 512.288,263.532C512.702,263.853 512.708,264.023 512.91,264.483L550.912,414.216C550.951,414.743 551.033,414.907 550.792,415.407C550.704,415.589 550.582,415.758 550.437,415.9C550.142,416.187 549.756,416.361 549.345,416.391C549.143,416.406 548.936,416.385 548.741,416.33C548.546,416.275 548.358,416.184 548.193,416.066C547.744,415.742 547.737,415.559 547.52,415.077L511.216,272.035L479.986,395.378L479.737,395.932C479.368,396.311 479.3,396.481 478.766,396.632C478.571,396.687 478.364,396.708 478.162,396.693C477.96,396.678 477.757,396.627 477.572,396.544C477.197,396.375 476.893,396.08 476.714,395.709C476.473,395.21 476.555,395.046 476.594,394.518L509.518,264.483C509.595,264.308 509.644,264.117 509.749,263.956C509.962,263.63 510.277,263.384 510.645,263.258C510.827,263.196 511.024,263.195 511.214,263.163C511.403,263.195 511.592,263.226 511.782,263.258Z" style="fill:rgb(116,171,220);fill-rule:nonzero;"/>
            </g>
        </g>
    </g>
</svg>
