<?xml version="1.0" encoding="UTF-8" standalone="no"?>
<!DOCTYPE svg PUBLIC "-//W3C//DTD SVG 1.1//EN" "http://www.w3.org/Graphics/SVG/1.1/DTD/svg11.dtd">
<svg width="100%" height="100%" viewBox="0 0 2363 1772" version="1.1" xmlns="http://www.w3.org/2000/svg" xmlns:xlink="http://www.w3.org/1999/xlink" xml:space="preserve" style="fill-rule:evenodd;clip-rule:evenodd;stroke-linejoin:round;stroke-miterlimit:1.41421;">
    <g transform="matrix(127.983,0,0,127.983,-257564,-120134)">
        <path d="M2025.92,951.762L2017.52,951.762C2017.27,951.762 2017.06,951.674 2016.88,951.498C2016.7,951.323 2016.62,951.112 2016.62,950.866L2016.62,942.463C2016.62,942.217 2016.7,942.006 2016.88,941.831C2017.06,941.655 2017.27,941.567 2017.52,941.567L2018.12,941.567C2018.2,941.567 2018.27,941.596 2018.33,941.655C2018.39,941.713 2018.42,941.784 2018.42,941.866C2018.42,941.948 2018.39,942.018 2018.33,942.077C2018.27,942.135 2018.2,942.165 2018.12,942.165L2017.52,942.165C2017.43,942.165 2017.37,942.194 2017.31,942.252C2017.25,942.311 2017.22,942.381 2017.22,942.463L2017.22,950.866C2017.22,950.948 2017.25,951.018 2017.31,951.077C2017.37,951.135 2017.43,951.165 2017.52,951.165L2025.92,951.165C2026,951.165 2026.07,951.135 2026.13,951.077C2026.19,951.018 2026.22,950.948 2026.22,950.866L2026.22,942.463C2026.22,942.381 2026.19,942.311 2026.13,942.252C2026.07,942.194 2026,942.165 2025.92,942.165L2025.32,942.165C2025.23,942.165 2025.16,942.135 2025.11,942.077C2025.05,942.018 2025.02,941.948 2025.02,941.866C2025.02,941.784 2025.05,941.713 2025.11,941.655C2025.16,941.596 2025.23,941.567 2025.32,941.567L2025.92,941.567C2026.17,941.567 2026.38,941.655 2026.55,941.831C2026.73,942.006 2026.82,942.217 2026.82,942.463L2026.82,950.866C2026.82,951.112 2026.73,951.323 2026.55,951.498C2026.38,951.674 2026.17,951.762 2025.92,951.762ZM2024.12,942.762L2019.32,942.762C2019.23,942.762 2019.16,942.733 2019.11,942.674C2019.05,942.616 2019.02,942.545 2019.02,942.463C2019.02,942.163 2019.08,941.899 2019.21,941.672C2019.35,941.446 2019.54,941.27 2019.79,941.145C2019.87,941.106 2019.95,941.074 2020.03,941.048C2020.1,941.023 2020.18,941.004 2020.24,940.993C2020.27,940.821 2020.33,940.66 2020.42,940.509C2020.51,940.359 2020.62,940.228 2020.75,940.117C2020.88,940.005 2021.03,939.918 2021.19,939.856C2021.36,939.793 2021.54,939.762 2021.72,939.762C2021.9,939.762 2022.08,939.793 2022.24,939.856C2022.4,939.918 2022.55,940.005 2022.68,940.117C2022.81,940.228 2022.92,940.359 2023.01,940.509C2023.1,940.66 2023.16,940.821 2023.19,940.993C2023.26,941.004 2023.33,941.023 2023.41,941.048C2023.49,941.074 2023.57,941.106 2023.65,941.145C2023.9,941.27 2024.09,941.444 2024.22,941.666C2024.35,941.889 2024.42,942.149 2024.42,942.446L2024.42,942.463C2024.42,942.545 2024.39,942.616 2024.33,942.674C2024.27,942.733 2024.2,942.762 2024.12,942.762ZM2019.66,942.165L2023.78,942.165C2023.75,942.059 2023.71,941.966 2023.64,941.886C2023.58,941.806 2023.5,941.741 2023.4,941.69C2023.28,941.631 2023.17,941.596 2023.07,941.584C2022.97,941.573 2022.92,941.567 2022.91,941.567C2022.83,941.567 2022.76,941.538 2022.7,941.479C2022.64,941.42 2022.62,941.348 2022.62,941.262C2022.62,941.016 2022.53,940.805 2022.35,940.629C2022.18,940.454 2021.97,940.366 2021.72,940.366C2021.47,940.366 2021.26,940.454 2021.08,940.629C2020.9,940.805 2020.82,941.016 2020.82,941.262C2020.82,941.348 2020.79,941.42 2020.73,941.479C2020.67,941.538 2020.6,941.567 2020.52,941.567C2020.52,941.567 2020.47,941.573 2020.37,941.584C2020.26,941.596 2020.15,941.631 2020.04,941.69C2019.93,941.741 2019.85,941.806 2019.79,941.886C2019.73,941.966 2019.68,942.059 2019.66,942.165ZM2021.72,941.567C2021.68,941.567 2021.64,941.559 2021.6,941.543C2021.57,941.528 2021.54,941.506 2021.51,941.479C2021.48,941.448 2021.45,941.415 2021.44,941.379C2021.43,941.344 2021.42,941.305 2021.42,941.262C2021.42,941.223 2021.43,941.185 2021.44,941.148C2021.45,941.111 2021.48,941.079 2021.51,941.051C2021.54,941.024 2021.57,941.002 2021.6,940.987C2021.64,940.971 2021.68,940.963 2021.72,940.963C2021.76,940.963 2021.8,940.971 2021.83,940.987C2021.87,941.002 2021.9,941.024 2021.93,941.051C2021.96,941.079 2021.98,941.111 2021.99,941.148C2022.01,941.185 2022.02,941.223 2022.02,941.262C2022.02,941.305 2022.01,941.344 2021.99,941.379C2021.98,941.415 2021.96,941.448 2021.93,941.479C2021.9,941.506 2021.87,941.528 2021.83,941.543C2021.8,941.559 2021.76,941.567 2021.72,941.567ZM2024.72,944.567L2018.72,944.567C2018.64,944.567 2018.57,944.538 2018.51,944.479C2018.45,944.42 2018.42,944.348 2018.42,944.262C2018.42,944.18 2018.45,944.11 2018.51,944.051C2018.57,943.993 2018.64,943.963 2018.72,943.963L2024.72,943.963C2024.8,943.963 2024.87,943.993 2024.93,944.051C2024.99,944.11 2025.02,944.18 2025.02,944.262C2025.02,944.348 2024.99,944.42 2024.93,944.479C2024.87,944.538 2024.8,944.567 2024.72,944.567ZM2023.52,946.366L2018.72,946.366C2018.64,946.366 2018.57,946.336 2018.51,946.278C2018.45,946.219 2018.42,946.149 2018.42,946.067C2018.42,945.981 2018.45,945.909 2018.51,945.85C2018.57,945.791 2018.64,945.762 2018.72,945.762L2023.52,945.762C2023.6,945.762 2023.67,945.791 2023.73,945.85C2023.79,945.909 2023.82,945.981 2023.82,946.067C2023.82,946.149 2023.79,946.219 2023.73,946.278C2023.67,946.336 2023.6,946.366 2023.52,946.366ZM2024.72,947.567L2018.72,947.567C2018.64,947.567 2018.57,947.538 2018.51,947.479C2018.45,947.42 2018.42,947.348 2018.42,947.262C2018.42,947.18 2018.45,947.11 2018.51,947.051C2018.57,946.993 2018.64,946.963 2018.72,946.963L2024.72,946.963C2024.8,946.963 2024.87,946.993 2024.93,947.051C2024.99,947.11 2025.02,947.18 2025.02,947.262C2025.02,947.348 2024.99,947.42 2024.93,947.479C2024.87,947.538 2024.8,947.567 2024.72,947.567ZM2024.72,948.762L2018.72,948.762C2018.64,948.762 2018.57,948.733 2018.51,948.674C2018.45,948.616 2018.42,948.545 2018.42,948.463C2018.42,948.381 2018.45,948.311 2018.51,948.252C2018.57,948.194 2018.64,948.165 2018.72,948.165L2024.72,948.165C2024.8,948.165 2024.87,948.194 2024.93,948.252C2024.99,948.311 2025.02,948.381 2025.02,948.463C2025.02,948.545 2024.99,948.616 2024.93,948.674C2024.87,948.733 2024.8,948.762 2024.72,948.762ZM2021.72,949.963L2018.72,949.963C2018.64,949.963 2018.57,949.934 2018.51,949.875C2018.45,949.817 2018.42,949.747 2018.42,949.665C2018.42,949.582 2018.45,949.512 2018.51,949.454C2018.57,949.395 2018.64,949.366 2018.72,949.366L2021.72,949.366C2021.8,949.366 2021.87,949.395 2021.93,949.454C2021.99,949.512 2022.02,949.582 2022.02,949.665C2022.02,949.747 2021.99,949.817 2021.93,949.875C2021.87,949.934 2021.8,949.963 2021.72,949.963Z" style="fill:rgb(40,84,129);fill-rule:nonzero;"/>
    </g>
</svg>
