<?xml version="1.0" encoding="UTF-8" standalone="no"?>
<!DOCTYPE svg PUBLIC "-//W3C//DTD SVG 1.1//EN" "http://www.w3.org/Graphics/SVG/1.1/DTD/svg11.dtd">
<svg width="100%" height="100%" viewBox="0 0 2363 1772" version="1.1" xmlns="http://www.w3.org/2000/svg" xmlns:xlink="http://www.w3.org/1999/xlink" xml:space="preserve" style="fill-rule:evenodd;clip-rule:evenodd;stroke-linejoin:round;stroke-miterlimit:1.41421;">
    <g transform="matrix(159.963,0,0,159.963,-322360,-150379)">
        <path d="M2027.17,948.44L2024.46,945.967L2024.77,945.61C2024.91,945.661 2025.05,945.699 2025.19,945.724C2025.33,945.749 2025.47,945.762 2025.62,945.762C2025.95,945.762 2026.26,945.7 2026.55,945.575C2026.84,945.45 2027.1,945.279 2027.31,945.062C2027.53,944.845 2027.71,944.59 2027.83,944.297C2027.96,944.004 2028.02,943.694 2028.02,943.366C2028.02,943.174 2028,942.985 2027.95,942.797C2027.9,942.61 2027.84,942.43 2027.75,942.258C2027.73,942.219 2027.7,942.185 2027.66,942.156C2027.62,942.126 2027.58,942.108 2027.53,942.1C2027.48,942.096 2027.43,942.101 2027.39,942.115C2027.34,942.128 2027.31,942.153 2027.27,942.188L2026.1,943.366L2025.62,943.366L2025.62,942.891L2026.79,941.713C2026.83,941.678 2026.85,941.638 2026.87,941.593C2026.88,941.548 2026.89,941.502 2026.88,941.456C2026.87,941.409 2026.86,941.366 2026.83,941.327C2026.8,941.288 2026.77,941.256 2026.72,941.233C2026.55,941.147 2026.37,941.081 2026.18,941.034C2026,940.987 2025.81,940.963 2025.62,940.963C2025.29,940.963 2024.98,941.027 2024.69,941.154C2024.39,941.281 2024.14,941.453 2023.92,941.669C2023.7,941.886 2023.53,942.14 2023.41,942.431C2023.28,942.722 2023.22,943.034 2023.22,943.366C2023.22,943.51 2023.23,943.654 2023.26,943.796C2023.28,943.939 2023.32,944.077 2023.37,944.209L2022.94,944.59L2021.46,943.248C2021.43,943.221 2021.41,943.191 2021.4,943.158C2021.38,943.124 2021.37,943.088 2021.37,943.049C2021.37,943.014 2021.38,942.979 2021.39,942.944C2021.41,942.909 2021.43,942.877 2021.46,942.85L2022.83,941.479C2022.88,941.436 2022.9,941.384 2022.91,941.324C2022.93,941.263 2022.92,941.206 2022.9,941.151C2022.87,941.092 2022.84,941.046 2022.79,941.013C2022.73,940.98 2022.68,940.963 2022.62,940.963C2022.6,940.963 2022.47,940.965 2022.22,940.969C2021.97,940.973 2021.68,940.985 2021.36,941.004C2020.75,941.04 2020.34,941.089 2020.13,941.154C2019.91,941.218 2019.77,941.284 2019.7,941.35L2017.61,943.454C2017.58,943.481 2017.56,943.513 2017.54,943.55C2017.53,943.587 2017.52,943.625 2017.52,943.665L2017.52,943.963L2017.22,943.963C2017.18,943.963 2017.14,943.971 2017.1,943.987C2017.07,944.002 2017.04,944.024 2017.01,944.051L2016.4,944.655C2016.35,944.713 2016.32,944.784 2016.32,944.866C2016.32,944.948 2016.35,945.018 2016.4,945.077L2017.61,946.278C2017.66,946.336 2017.73,946.366 2017.82,946.366C2017.9,946.366 2017.97,946.336 2018.03,946.278L2018.63,945.674C2018.66,945.647 2018.68,945.615 2018.69,945.578C2018.71,945.54 2018.72,945.502 2018.72,945.463L2018.72,945.165L2019.02,945.165C2019.06,945.165 2019.1,945.157 2019.13,945.141C2019.17,945.125 2019.2,945.104 2019.23,945.077L2019.7,944.602C2019.73,944.575 2019.76,944.554 2019.79,944.54C2019.83,944.527 2019.86,944.52 2019.9,944.52C2019.93,944.52 2019.97,944.528 2020.01,944.543C2020.04,944.559 2020.07,944.581 2020.1,944.608L2021.37,946.008L2018.67,948.44C2018.57,948.522 2018.5,948.617 2018.45,948.724C2018.4,948.832 2018.38,948.944 2018.37,949.061C2018.37,949.182 2018.39,949.297 2018.43,949.407C2018.48,949.516 2018.55,949.614 2018.63,949.7L2019.28,950.35C2019.36,950.436 2019.46,950.5 2019.56,950.543C2019.67,950.586 2019.78,950.608 2019.9,950.608L2019.92,950.608C2020.04,950.604 2020.15,950.578 2020.26,950.529C2020.36,950.48 2020.46,950.411 2020.54,950.321L2022.9,947.696L2025.29,950.321C2025.38,950.415 2025.47,950.486 2025.59,950.535C2025.7,950.583 2025.82,950.608 2025.94,950.608C2026.06,950.608 2026.17,950.586 2026.27,950.543C2026.38,950.5 2026.47,950.436 2026.55,950.35L2027.2,949.7C2027.29,949.614 2027.35,949.516 2027.4,949.407C2027.44,949.297 2027.47,949.182 2027.46,949.061C2027.46,948.944 2027.43,948.832 2027.38,948.724C2027.33,948.617 2027.26,948.522 2027.17,948.44ZM2024,944.157C2023.94,944.032 2023.89,943.903 2023.86,943.77C2023.83,943.637 2023.82,943.502 2023.82,943.366C2023.82,943.116 2023.86,942.881 2023.96,942.663C2024.06,942.444 2024.18,942.253 2024.35,942.091C2024.51,941.929 2024.7,941.801 2024.92,941.707C2025.14,941.614 2025.37,941.567 2025.62,941.567C2025.69,941.567 2025.76,941.571 2025.83,941.579C2025.9,941.586 2025.97,941.598 2026.04,941.614L2025.11,942.551C2025.08,942.579 2025.06,942.611 2025.04,942.648C2025.03,942.685 2025.02,942.723 2025.02,942.762L2025.02,943.665C2025.02,943.747 2025.05,943.817 2025.11,943.875C2025.16,943.934 2025.23,943.963 2025.32,943.963L2026.22,943.963C2026.26,943.963 2026.3,943.956 2026.33,943.94C2026.37,943.924 2026.4,943.903 2026.43,943.875L2027.37,942.938C2027.38,943.008 2027.39,943.079 2027.4,943.149C2027.41,943.219 2027.42,943.291 2027.42,943.366C2027.42,943.612 2027.37,943.844 2027.28,944.063C2027.18,944.282 2027.05,944.473 2026.89,944.637C2026.73,944.801 2026.54,944.93 2026.32,945.024C2026.1,945.118 2025.87,945.165 2025.62,945.165C2025.48,945.165 2025.34,945.149 2025.21,945.118C2025.08,945.086 2024.95,945.041 2024.82,944.983C2024.77,944.952 2024.7,944.943 2024.64,944.957C2024.57,944.97 2024.52,945 2024.47,945.047L2024.01,945.563L2023.39,945L2023.93,944.514C2023.98,944.467 2024.01,944.411 2024.02,944.344C2024.04,944.278 2024.03,944.215 2024,944.157ZM2019.9,943.922C2019.78,943.922 2019.67,943.944 2019.57,943.987C2019.46,944.03 2019.36,944.092 2019.28,944.174L2018.89,944.567L2018.42,944.567C2018.33,944.567 2018.26,944.596 2018.2,944.655C2018.14,944.713 2018.12,944.784 2018.12,944.866L2018.12,945.34L2017.82,945.639L2017.04,944.866L2017.34,944.567L2017.82,944.567C2017.9,944.567 2017.97,944.538 2018.03,944.479C2018.09,944.42 2018.12,944.348 2018.12,944.262L2018.12,943.788L2020.12,941.784C2020.14,941.772 2020.23,941.746 2020.41,941.705C2020.58,941.664 2020.93,941.627 2021.46,941.596C2021.53,941.592 2021.6,941.589 2021.67,941.587C2021.74,941.585 2021.81,941.582 2021.88,941.579L2021.03,942.428C2020.94,942.514 2020.88,942.612 2020.83,942.721C2020.79,942.831 2020.77,942.946 2020.78,943.067C2020.78,943.184 2020.8,943.296 2020.85,943.404C2020.9,943.511 2020.97,943.606 2021.06,943.688L2021.58,944.168L2021.02,944.731L2020.54,944.209C2020.46,944.116 2020.36,944.043 2020.25,943.993C2020.13,943.942 2020.02,943.916 2019.9,943.916L2019.9,943.922ZM2020.1,949.916C2020.07,949.944 2020.04,949.966 2020.01,949.984C2019.97,950.001 2019.94,950.01 2019.9,950.01C2019.87,950.01 2019.83,950.003 2019.8,949.99C2019.76,949.976 2019.73,949.956 2019.7,949.928L2019.05,949.278C2019.03,949.25 2019.01,949.219 2018.99,949.184C2018.98,949.149 2018.97,949.114 2018.97,949.079C2018.97,949.043 2018.98,949.009 2019,948.976C2019.02,948.943 2019.04,948.913 2019.06,948.885L2021.77,946.454L2022.5,947.245L2020.1,949.916ZM2026.78,949.278L2026.13,949.928C2026.1,949.956 2026.07,949.976 2026.04,949.99C2026.01,950.003 2025.97,950.01 2025.94,950.01C2025.9,950.01 2025.86,950.002 2025.83,949.987C2025.79,949.971 2025.76,949.948 2025.74,949.916L2021.43,945.176L2022.03,944.573L2026.77,948.885C2026.8,948.909 2026.82,948.937 2026.84,948.97C2026.86,949.003 2026.86,949.04 2026.86,949.079C2026.86,949.114 2026.86,949.149 2026.84,949.184C2026.83,949.219 2026.81,949.25 2026.78,949.278Z" style="fill:rgb(40,84,129);fill-rule:nonzero;"/>
    </g>
</svg>
