<?xml version="1.0" encoding="UTF-8" standalone="no"?>
<!DOCTYPE svg PUBLIC "-//W3C//DTD SVG 1.1//EN" "http://www.w3.org/Graphics/SVG/1.1/DTD/svg11.dtd">
<svg width="100%" height="100%" viewBox="0 0 2363 1772" version="1.1" xmlns="http://www.w3.org/2000/svg" xmlns:xlink="http://www.w3.org/1999/xlink" xml:space="preserve" style="fill-rule:evenodd;clip-rule:evenodd;stroke-linejoin:round;stroke-miterlimit:1.41421;">
    <g transform="matrix(145.685,0,0,145.343,-293353,-136548)">
        <path d="M2021.72,951.165C2021.69,951.165 2021.67,951.162 2021.64,951.156C2021.62,951.15 2021.6,951.141 2021.57,951.129C2021.55,951.118 2021.44,951.053 2021.25,950.936C2021.05,950.819 2020.8,950.655 2020.49,950.444C2020.19,950.233 2019.85,949.978 2019.47,949.679C2019.1,949.38 2018.72,949.047 2018.35,948.68C2018.29,948.622 2018.26,948.55 2018.26,948.466C2018.26,948.382 2018.29,948.311 2018.35,948.252C2018.41,948.194 2018.48,948.165 2018.56,948.165C2018.64,948.165 2018.71,948.194 2018.77,948.252C2019.07,948.545 2019.37,948.817 2019.67,949.067C2019.97,949.317 2020.26,949.539 2020.53,949.732C2020.79,949.925 2021.03,950.088 2021.24,950.221C2021.45,950.354 2021.61,950.454 2021.72,950.52C2021.83,950.454 2021.99,950.353 2022.2,950.218C2022.4,950.083 2022.64,949.919 2022.91,949.726C2023.17,949.533 2023.46,949.312 2023.76,949.064C2024.07,948.816 2024.37,948.545 2024.66,948.252C2024.72,948.194 2024.79,948.165 2024.87,948.165C2024.96,948.165 2025.03,948.194 2025.09,948.252C2025.15,948.311 2025.18,948.382 2025.18,948.466C2025.18,948.55 2025.14,948.622 2025.08,948.68C2024.71,949.047 2024.34,949.38 2023.96,949.679C2023.58,949.978 2023.24,950.233 2022.94,950.444C2022.63,950.655 2022.38,950.819 2022.18,950.936C2021.99,951.053 2021.88,951.118 2021.87,951.129C2021.84,951.141 2021.82,951.15 2021.79,951.156C2021.77,951.162 2021.74,951.165 2021.72,951.165ZM2016.79,946.366C2016.73,946.366 2016.68,946.35 2016.63,946.319C2016.58,946.288 2016.54,946.245 2016.52,946.19C2016.43,946.018 2016.36,945.844 2016.3,945.668C2016.24,945.493 2016.18,945.318 2016.14,945.144C2016.1,944.97 2016.07,944.797 2016.05,944.625C2016.03,944.454 2016.02,944.284 2016.02,944.116C2016.02,943.682 2016.1,943.274 2016.27,942.891C2016.43,942.508 2016.66,942.174 2016.94,941.889C2017.23,941.604 2017.56,941.378 2017.94,941.212C2018.32,941.046 2018.73,940.963 2019.17,940.963C2019.31,940.963 2019.46,940.977 2019.61,941.004C2019.76,941.032 2019.91,941.072 2020.06,941.124C2020.21,941.177 2020.36,941.242 2020.5,941.318C2020.65,941.394 2020.79,941.483 2020.93,941.584C2021.09,941.702 2021.23,941.83 2021.37,941.968C2021.5,942.107 2021.62,942.25 2021.72,942.399C2021.82,942.25 2021.93,942.107 2022.07,941.968C2022.2,941.83 2022.35,941.702 2022.51,941.584C2022.65,941.483 2022.79,941.394 2022.93,941.318C2023.08,941.242 2023.22,941.177 2023.37,941.124C2023.52,941.072 2023.67,941.032 2023.82,941.004C2023.97,940.977 2024.12,940.963 2024.27,940.963C2024.7,940.963 2025.11,941.046 2025.49,941.212C2025.88,941.378 2026.21,941.604 2026.49,941.889C2026.78,942.174 2027.01,942.508 2027.17,942.891C2027.34,943.274 2027.42,943.682 2027.42,944.116C2027.42,944.284 2027.41,944.454 2027.39,944.625C2027.37,944.797 2027.34,944.97 2027.29,945.144C2027.25,945.318 2027.2,945.493 2027.14,945.668C2027.08,945.844 2027,946.018 2026.92,946.19C2026.89,946.268 2026.83,946.321 2026.75,946.348C2026.67,946.375 2026.6,946.372 2026.52,946.336C2026.45,946.301 2026.4,946.245 2026.37,946.166C2026.34,946.088 2026.34,946.012 2026.38,945.938C2026.45,945.782 2026.52,945.626 2026.57,945.472C2026.62,945.318 2026.67,945.165 2026.71,945.015C2026.75,944.865 2026.77,944.714 2026.79,944.564C2026.81,944.414 2026.82,944.264 2026.82,944.116C2026.82,943.764 2026.75,943.433 2026.62,943.123C2026.48,942.812 2026.3,942.541 2026.07,942.311C2025.84,942.081 2025.57,941.899 2025.26,941.766C2024.95,941.633 2024.62,941.567 2024.27,941.567C2024.01,941.567 2023.77,941.614 2023.52,941.707C2023.28,941.801 2023.05,941.924 2022.85,942.077C2022.64,942.229 2022.47,942.401 2022.32,942.592C2022.17,942.784 2022.06,942.973 2022,943.161C2021.98,943.219 2021.94,943.268 2021.89,943.307C2021.84,943.346 2021.78,943.366 2021.72,943.366C2021.65,943.366 2021.59,943.346 2021.54,943.307C2021.49,943.268 2021.45,943.219 2021.43,943.161C2021.37,942.973 2021.26,942.784 2021.12,942.592C2020.97,942.401 2020.79,942.229 2020.59,942.077C2020.38,941.924 2020.16,941.801 2019.92,941.707C2019.67,941.614 2019.42,941.567 2019.17,941.567C2018.82,941.567 2018.49,941.633 2018.18,941.766C2017.87,941.899 2017.6,942.081 2017.37,942.311C2017.13,942.541 2016.95,942.812 2016.82,943.123C2016.68,943.433 2016.62,943.764 2016.62,944.116C2016.62,944.264 2016.62,944.414 2016.64,944.564C2016.66,944.714 2016.69,944.865 2016.73,945.015C2016.77,945.165 2016.81,945.318 2016.87,945.472C2016.92,945.626 2016.98,945.782 2017.06,945.938C2017.09,946.012 2017.09,946.088 2017.07,946.166C2017.04,946.245 2016.99,946.301 2016.91,946.336C2016.89,946.344 2016.87,946.351 2016.85,946.357C2016.83,946.363 2016.81,946.366 2016.79,946.366ZM2022.33,948.762C2022.32,948.762 2022.32,948.762 2022.32,948.762C2022.32,948.762 2022.32,948.762 2022.32,948.762C2022.26,948.762 2022.18,948.735 2022.09,948.68C2021.99,948.625 2021.92,948.5 2021.87,948.305L2021.14,945.704L2020.65,947.672C2020.61,947.864 2020.54,947.99 2020.44,948.05C2020.35,948.111 2020.28,948.145 2020.21,948.153C2020.15,948.161 2020.07,948.145 2019.97,948.106C2019.87,948.067 2019.77,947.959 2019.68,947.784L2019.32,947.051C2019.31,947.036 2019.3,947.022 2019.29,947.01C2019.29,946.998 2019.28,946.989 2019.27,946.981C2019.27,946.985 2019.27,946.988 2019.27,946.99C2019.27,946.992 2019.27,946.993 2019.26,946.993C2019.15,947.157 2018.99,947.293 2018.77,947.403C2018.55,947.512 2018.33,947.567 2018.12,947.567L2017.52,947.567C2017.43,947.567 2017.37,947.538 2017.31,947.479C2017.25,947.42 2017.22,947.348 2017.22,947.262C2017.22,947.18 2017.25,947.11 2017.31,947.051C2017.37,946.993 2017.43,946.963 2017.52,946.963L2018.12,946.963C2018.24,946.963 2018.37,946.93 2018.5,946.864C2018.63,946.797 2018.72,946.727 2018.77,946.653C2018.84,946.555 2018.92,946.482 2019.01,946.433C2019.11,946.384 2019.2,946.362 2019.31,946.366C2019.42,946.373 2019.52,946.415 2019.62,946.489C2019.71,946.563 2019.79,946.663 2019.86,946.788L2020.12,947.321L2020.68,945.036C2020.73,944.844 2020.8,944.718 2020.88,944.658C2020.97,944.597 2021.05,944.567 2021.12,944.567C2021.19,944.567 2021.27,944.595 2021.36,944.652C2021.45,944.708 2021.52,944.832 2021.57,945.024L2022.34,947.772L2023.05,945.604C2023.11,945.416 2023.18,945.295 2023.28,945.241C2023.38,945.186 2023.46,945.159 2023.52,945.159C2023.58,945.155 2023.66,945.175 2023.76,945.22C2023.86,945.265 2023.95,945.379 2024.03,945.563L2024.46,946.594C2024.5,946.692 2024.58,946.778 2024.69,946.852C2024.8,946.926 2024.91,946.963 2025.02,946.963L2025.92,946.963C2026,946.963 2026.07,946.993 2026.13,947.051C2026.19,947.11 2026.22,947.18 2026.22,947.262C2026.22,947.348 2026.19,947.42 2026.13,947.479C2026.07,947.538 2026,947.567 2025.92,947.567L2025.02,947.567C2024.8,947.567 2024.58,947.496 2024.36,947.353C2024.15,947.21 2024,947.036 2023.91,946.829L2023.55,945.985L2022.79,948.323C2022.73,948.514 2022.65,948.635 2022.56,948.686C2022.46,948.737 2022.39,948.762 2022.33,948.762Z" style="fill:rgb(40,84,129);fill-rule:nonzero;"/>
    </g>
</svg>
