<?xml version="1.0" encoding="UTF-8" standalone="no"?>
<!DOCTYPE svg PUBLIC "-//W3C//DTD SVG 1.1//EN" "http://www.w3.org/Graphics/SVG/1.1/DTD/svg11.dtd">
<svg width="100%" height="100%" viewBox="0 0 2363 1772" version="1.1" xmlns="http://www.w3.org/2000/svg" xmlns:xlink="http://www.w3.org/1999/xlink" xml:space="preserve" style="fill-rule:evenodd;clip-rule:evenodd;stroke-linejoin:round;stroke-miterlimit:1.41421;">
    <g transform="matrix(159.963,0,0,159.963,-322266,-150379)">
        <path d="M2027.12,950.567L2020.52,950.567C2020.27,950.567 2020.06,950.479 2019.88,950.303C2019.7,950.127 2019.62,949.915 2019.62,949.665C2019.62,949.649 2019.64,949.498 2019.69,949.21C2019.74,948.923 2019.9,948.612 2020.17,948.276C2020.33,948.081 2020.51,947.907 2020.73,947.754C2020.94,947.602 2021.18,947.471 2021.45,947.362C2021.61,947.295 2021.78,947.238 2021.96,947.189C2022.14,947.14 2022.33,947.099 2022.52,947.066C2022.72,947.033 2022.93,947.007 2023.14,946.99C2023.36,946.972 2023.59,946.963 2023.82,946.963C2024.05,946.963 2024.28,946.972 2024.49,946.99C2024.71,947.007 2024.91,947.033 2025.11,947.066C2025.31,947.099 2025.49,947.14 2025.67,947.189C2025.85,947.238 2026.02,947.295 2026.18,947.362C2026.45,947.471 2026.69,947.602 2026.91,947.754C2027.12,947.907 2027.31,948.081 2027.46,948.276C2027.74,948.612 2027.9,948.923 2027.95,949.21C2027.99,949.498 2028.02,949.649 2028.02,949.665C2028.02,949.915 2027.93,950.127 2027.75,950.303C2027.58,950.479 2027.37,950.567 2027.12,950.567ZM2020.22,949.665C2020.22,949.747 2020.25,949.817 2020.31,949.875C2020.37,949.934 2020.43,949.963 2020.52,949.963L2027.12,949.963C2027.2,949.963 2027.27,949.934 2027.33,949.875C2027.39,949.817 2027.42,949.747 2027.42,949.665C2027.42,949.657 2027.4,949.544 2027.36,949.328C2027.31,949.111 2027.18,948.877 2026.97,948.627C2026.83,948.452 2026.65,948.298 2026.44,948.167C2026.23,948.037 2026,947.926 2025.73,947.836C2025.47,947.747 2025.17,947.679 2024.85,947.634C2024.53,947.589 2024.19,947.567 2023.82,947.567C2023.44,947.567 2023.1,947.589 2022.78,947.634C2022.46,947.679 2022.17,947.747 2021.9,947.836C2021.64,947.926 2021.4,948.037 2021.19,948.167C2020.99,948.298 2020.81,948.452 2020.66,948.627C2020.45,948.877 2020.32,949.111 2020.28,949.328C2020.24,949.544 2020.22,949.657 2020.22,949.665ZM2023.82,946.366C2023.49,946.366 2023.18,946.302 2022.88,946.175C2022.59,946.048 2022.34,945.876 2022.12,945.66C2021.9,945.443 2021.73,945.189 2021.61,944.898C2021.48,944.607 2021.42,944.295 2021.42,943.963C2021.42,943.635 2021.48,943.325 2021.61,943.032C2021.73,942.739 2021.9,942.484 2022.12,942.267C2022.34,942.05 2022.59,941.879 2022.88,941.754C2023.18,941.629 2023.49,941.567 2023.82,941.567C2024.15,941.567 2024.46,941.629 2024.75,941.754C2025.04,941.879 2025.3,942.05 2025.51,942.267C2025.73,942.484 2025.9,942.739 2026.03,943.032C2026.15,943.325 2026.22,943.635 2026.22,943.963C2026.22,944.295 2026.15,944.607 2026.03,944.898C2025.9,945.189 2025.73,945.443 2025.51,945.66C2025.3,945.876 2025.04,946.048 2024.75,946.175C2024.46,946.302 2024.15,946.366 2023.82,946.366ZM2023.82,942.165C2023.57,942.165 2023.34,942.211 2023.12,942.305C2022.9,942.399 2022.71,942.528 2022.55,942.692C2022.38,942.856 2022.25,943.047 2022.16,943.266C2022.06,943.485 2022.02,943.717 2022.02,943.963C2022.02,944.213 2022.06,944.448 2022.16,944.666C2022.25,944.885 2022.38,945.076 2022.55,945.238C2022.71,945.4 2022.9,945.528 2023.12,945.622C2023.34,945.715 2023.57,945.762 2023.82,945.762C2024.07,945.762 2024.3,945.715 2024.52,945.622C2024.74,945.528 2024.93,945.4 2025.09,945.238C2025.25,945.076 2025.38,944.885 2025.47,944.666C2025.57,944.448 2025.62,944.213 2025.62,943.963C2025.62,943.717 2025.57,943.485 2025.47,943.266C2025.38,943.047 2025.25,942.856 2025.09,942.692C2024.93,942.528 2024.74,942.399 2024.52,942.305C2024.3,942.211 2024.07,942.165 2023.82,942.165ZM2018.72,950.567L2016.92,950.567C2016.67,950.567 2016.46,950.479 2016.28,950.303C2016.11,950.127 2016.02,949.915 2016.02,949.665C2016.02,949.653 2016.04,949.536 2016.07,949.313C2016.11,949.09 2016.22,948.848 2016.42,948.586C2016.53,948.434 2016.66,948.298 2016.82,948.179C2016.97,948.06 2017.14,947.957 2017.34,947.872C2017.56,947.77 2017.82,947.694 2018.1,947.643C2018.38,947.592 2018.69,947.567 2019.02,947.567C2019.07,947.567 2019.13,947.567 2019.18,947.567C2019.23,947.567 2019.28,947.569 2019.33,947.573C2019.42,947.577 2019.48,947.61 2019.54,947.672C2019.59,947.735 2019.62,947.807 2019.62,947.889C2019.61,947.971 2019.58,948.04 2019.52,948.094C2019.46,948.149 2019.38,948.174 2019.3,948.17C2019.26,948.17 2019.21,948.169 2019.16,948.167C2019.11,948.165 2019.06,948.165 2019.02,948.165C2018.43,948.165 2017.98,948.24 2017.65,948.39C2017.33,948.54 2017.1,948.707 2016.94,948.888C2016.79,949.07 2016.69,949.241 2016.66,949.401C2016.64,949.561 2016.62,949.649 2016.62,949.665C2016.62,949.747 2016.65,949.817 2016.71,949.875C2016.76,949.934 2016.83,949.963 2016.92,949.963L2018.72,949.963C2018.8,949.963 2018.87,949.993 2018.93,950.051C2018.99,950.11 2019.02,950.18 2019.02,950.262C2019.02,950.348 2018.99,950.42 2018.93,950.479C2018.87,950.538 2018.8,950.567 2018.72,950.567ZM2019.02,946.963C2018.77,946.963 2018.53,946.916 2018.32,946.823C2018.1,946.729 2017.91,946.6 2017.75,946.436C2017.58,946.272 2017.45,946.082 2017.36,945.865C2017.27,945.648 2017.22,945.415 2017.22,945.165C2017.22,944.915 2017.27,944.681 2017.36,944.464C2017.45,944.248 2017.58,944.057 2017.75,943.893C2017.91,943.729 2018.1,943.6 2018.32,943.506C2018.53,943.413 2018.77,943.366 2019.02,943.366C2019.27,943.366 2019.5,943.413 2019.72,943.506C2019.93,943.6 2020.12,943.729 2020.29,943.893C2020.45,944.057 2020.58,944.248 2020.68,944.464C2020.77,944.681 2020.82,944.915 2020.82,945.165C2020.82,945.415 2020.77,945.648 2020.68,945.865C2020.58,946.082 2020.45,946.272 2020.29,946.436C2020.12,946.6 2019.93,946.729 2019.72,946.823C2019.5,946.916 2019.27,946.963 2019.02,946.963ZM2019.02,943.963C2018.85,943.963 2018.7,943.995 2018.55,944.057C2018.4,944.12 2018.28,944.206 2018.17,944.315C2018.06,944.424 2017.97,944.552 2017.91,944.699C2017.85,944.845 2017.82,945 2017.82,945.165C2017.82,945.329 2017.85,945.484 2017.91,945.63C2017.97,945.777 2018.06,945.905 2018.17,946.014C2018.28,946.123 2018.4,946.209 2018.55,946.272C2018.7,946.334 2018.85,946.366 2019.02,946.366C2019.18,946.366 2019.34,946.334 2019.48,946.272C2019.63,946.209 2019.76,946.123 2019.87,946.014C2019.98,945.905 2020.06,945.777 2020.12,945.63C2020.19,945.484 2020.22,945.329 2020.22,945.165C2020.22,945 2020.19,944.845 2020.12,944.699C2020.06,944.552 2019.98,944.424 2019.87,944.315C2019.76,944.206 2019.63,944.12 2019.48,944.057C2019.34,943.995 2019.18,943.963 2019.02,943.963Z" style="fill:rgb(40,84,129);fill-rule:nonzero;"/>
    </g>
</svg>
