<?xml version="1.0" encoding="UTF-8" standalone="no"?>
<!DOCTYPE svg PUBLIC "-//W3C//DTD SVG 1.1//EN" "http://www.w3.org/Graphics/SVG/1.1/DTD/svg11.dtd">
<svg width="100%" height="100%" viewBox="0 0 2363 1772" version="1.1" xmlns="http://www.w3.org/2000/svg" xmlns:xlink="http://www.w3.org/1999/xlink" xml:space="preserve" style="fill-rule:evenodd;clip-rule:evenodd;stroke-linejoin:round;stroke-miterlimit:1.41421;">
    <g transform="matrix(33.5869,0,0,33.5869,383.659,298.712)">
        <path d="M22.51,19.995L25,19.995L25,17.48L22.51,17.48L22.51,19.995ZM27.49,19.995L30.005,19.995L30.005,17.48L27.49,17.48L27.49,19.995ZM32.495,19.995L35.01,19.995L35.01,17.48L32.495,17.48L32.495,19.995ZM37.5,19.995L39.99,19.995L39.99,17.48L37.5,17.48L37.5,19.995ZM22.51,27.49L25,27.49L25,25L22.51,25L22.51,27.49ZM27.49,27.49L30.005,27.49L30.005,25L27.49,25L27.49,27.49ZM32.495,27.49L35.01,27.49L35.01,25L32.495,25L32.495,27.49ZM37.5,27.49L39.99,27.49L39.99,25L37.5,25L37.5,27.49ZM22.51,34.985L25,34.985L25,32.495L22.51,32.495L22.51,34.985ZM27.49,34.985L30.005,34.985L30.005,32.495L27.49,32.495L27.49,34.985ZM32.495,34.985L35.01,34.985L35.01,32.495L32.495,32.495L32.495,34.985ZM37.5,34.985L39.99,34.985L39.99,32.495L37.5,32.495L37.5,34.985ZM43.75,9.985L42.505,9.985L42.505,3.735C42.505,3.573 42.472,3.414 42.407,3.259C42.342,3.105 42.253,2.97 42.139,2.856L37.5,-1.782L37.5,-6.25C37.5,-6.608 37.378,-6.909 37.134,-7.153C36.89,-7.397 36.597,-7.52 36.255,-7.52C35.913,-7.52 35.62,-7.397 35.376,-7.153C35.132,-6.909 35.01,-6.608 35.01,-6.25L35.01,-1.782L30.371,2.856C30.257,2.97 30.168,3.105 30.103,3.259C30.037,3.414 30.005,3.573 30.005,3.735L30.005,4.98L25,4.98L25,-1.27C25,-1.611 24.878,-1.904 24.634,-2.148C24.39,-2.393 24.097,-2.515 23.755,-2.515L3.76,-2.515C3.402,-2.515 3.101,-2.393 2.856,-2.148C2.612,-1.904 2.49,-1.611 2.49,-1.27L2.49,41.235C2.49,41.577 2.612,41.87 2.856,42.114C3.101,42.358 3.402,42.48 3.76,42.48L43.75,42.48C44.092,42.48 44.385,42.358 44.629,42.114C44.873,41.87 44.995,41.577 44.995,41.235L44.995,11.23C44.995,10.889 44.873,10.596 44.629,10.352C44.385,10.107 44.092,9.985 43.75,9.985ZM32.495,4.248L36.255,0.513L39.99,4.248L39.99,9.985L37.5,9.985L37.5,6.25C37.5,5.892 37.378,5.591 37.134,5.347C36.89,5.103 36.597,4.98 36.255,4.98L32.495,4.98L32.495,4.248ZM35.01,7.495L35.01,9.985L25,9.985L25,7.495L35.01,7.495ZM17.505,11.23L17.505,39.99L5.005,39.99L5.005,0L22.51,0L22.51,9.985L18.75,9.985C18.408,9.985 18.115,10.107 17.871,10.352C17.627,10.596 17.505,10.889 17.505,11.23ZM42.505,39.99L19.995,39.99L19.995,12.5L42.505,12.5L42.505,39.99ZM17.505,7.495L19.995,7.495L19.995,2.49L17.505,2.49L17.505,7.495ZM12.5,7.495L14.99,7.495L14.99,2.49L12.5,2.49L12.5,7.495ZM7.495,7.495L10.01,7.495L10.01,2.49L7.495,2.49L7.495,7.495ZM7.495,14.99L10.01,14.99L10.01,9.985L7.495,9.985L7.495,14.99ZM12.5,14.99L14.99,14.99L14.99,9.985L12.5,9.985L12.5,14.99ZM7.495,22.485L10.01,22.485L10.01,17.48L7.495,17.48L7.495,22.485ZM12.5,22.485L14.99,22.485L14.99,17.48L12.5,17.48L12.5,22.485ZM7.495,29.98L10.01,29.98L10.01,25L7.495,25L7.495,29.98ZM12.5,29.98L14.99,29.98L14.99,25L12.5,25L12.5,29.98ZM7.495,37.5L10.01,37.5L10.01,32.495L7.495,32.495L7.495,37.5ZM12.5,37.5L14.99,37.5L14.99,32.495L12.5,32.495L12.5,37.5Z" style="fill:rgb(40,84,129);fill-rule:nonzero;"/>
    </g>
</svg>
